<svg width="16" height="15" viewBox="0 0 16 15" fill="none" xmlns="http://www.w3.org/2000/svg">
<g filter="url(#filter0_d)">
<path d="M13.0328 6.33147C12.7295 5.64875 12.2885 5.03597 11.7375 4.53147L11.2828 4.11428C11.2674 4.10051 11.2488 4.09073 11.2287 4.08581C11.2086 4.08089 11.1876 4.08099 11.1675 4.08608C11.1475 4.09117 11.129 4.1011 11.1137 4.11501C11.0984 4.12892 11.0867 4.14638 11.0797 4.16585L10.8766 4.74866C10.75 5.11428 10.5172 5.48772 10.1875 5.85491C10.1656 5.87835 10.1406 5.8846 10.1234 5.88616C10.1063 5.88772 10.0797 5.8846 10.0562 5.86272C10.0344 5.84397 10.0234 5.81585 10.025 5.78772C10.0828 4.8471 9.80156 3.78616 9.18594 2.63147C8.67656 1.6721 7.96875 0.92366 7.08437 0.401785L6.43906 0.0220976C6.35469 -0.0279024 6.24688 0.0377225 6.25156 0.13616L6.28594 0.88616C6.30937 1.39866 6.25 1.85179 6.10938 2.22835C5.9375 2.68929 5.69062 3.11741 5.375 3.50179C5.15535 3.76891 4.90639 4.01053 4.63281 4.2221C3.97391 4.72861 3.43815 5.37762 3.06562 6.12054C2.69402 6.86993 2.50045 7.695 2.5 8.53147C2.5 9.26897 2.64531 9.98304 2.93281 10.6565C3.21042 11.3049 3.61103 11.8933 4.1125 12.3893C4.61875 12.8893 5.20625 13.283 5.86094 13.5565C6.53906 13.8408 7.25781 13.9846 8 13.9846C8.74219 13.9846 9.46094 13.8408 10.1391 13.558C10.7921 13.2862 11.386 12.8898 11.8875 12.3908C12.3938 11.8908 12.7906 11.3065 13.0672 10.658C13.3543 9.98644 13.5015 9.26341 13.5 8.53303C13.5 7.77053 13.3438 7.02991 13.0328 6.33147ZM11.1406 11.633C10.3016 12.4643 9.1875 12.9205 8 12.9205C6.8125 12.9205 5.69844 12.4643 4.85938 11.633C4.02344 10.8033 3.5625 9.70335 3.5625 8.53303C3.5625 7.85335 3.71563 7.20179 4.01719 6.59554C4.31094 6.00335 4.74844 5.47366 5.27969 5.06585C5.6185 4.80678 5.9258 4.50891 6.19531 4.17835C6.58594 3.70179 6.89219 3.17053 7.10469 2.60022C7.19185 2.36497 7.25519 2.12156 7.29375 1.87366C7.67031 2.22054 7.98594 2.63928 8.25 3.12991C8.77187 4.10803 9.0125 4.97835 8.96562 5.71897C8.95443 5.8934 8.98291 6.06811 9.04895 6.22994C9.11498 6.39178 9.21684 6.53654 9.34688 6.65335C9.45956 6.75514 9.59135 6.83352 9.73458 6.88395C9.87782 6.93438 10.0296 6.95584 10.1812 6.9471C10.4891 6.93147 10.7719 6.79554 10.9781 6.56585C11.1859 6.33304 11.3656 6.09554 11.5156 5.85335C11.7344 6.13304 11.9172 6.43772 12.0625 6.76585C12.3109 7.32522 12.4375 7.92053 12.4375 8.53303C12.4375 9.70335 11.9766 10.8049 11.1406 11.633Z" fill="white"/>
</g>
<defs>
<filter id="filter0_d" x="-1.5" y="0.00492859" width="19" height="21.9797" filterUnits="userSpaceOnUse" color-interpolation-filters="sRGB">
<feFlood flood-opacity="0" result="BackgroundImageFix"/>
<feColorMatrix in="SourceAlpha" type="matrix" values="0 0 0 0 0 0 0 0 0 0 0 0 0 0 0 0 0 0 127 0"/>
<feOffset dy="4"/>
<feGaussianBlur stdDeviation="2"/>
<feColorMatrix type="matrix" values="0 0 0 0 0 0 0 0 0 0 0 0 0 0 0 0 0 0 0.25 0"/>
<feBlend mode="normal" in2="BackgroundImageFix" result="effect1_dropShadow"/>
<feBlend mode="normal" in="SourceGraphic" in2="effect1_dropShadow" result="shape"/>
</filter>
</defs>
</svg>
